<?xml version="1.0" standalone="no"?>
<!DOCTYPE svg PUBLIC "-//W3C//DTD SVG 20010904//EN"
 "http://www.w3.org/TR/2001/REC-SVG-20010904/DTD/svg10.dtd">
<svg version="1.0" xmlns="http://www.w3.org/2000/svg"
 width="300.000000pt" height="300.000000pt" viewBox="0 0 300.000000 300.000000"
 preserveAspectRatio="xMidYMid meet">
<metadata>
Created by potrace 1.10, written by Peter Selinger 2001-2011
</metadata>
<g transform="translate(0.000000,300.000000) scale(0.100000,-0.100000)"
fill="#000000" stroke="none">
<path d="M1220 2973 c-47 -8 -132 -30 -189 -49 -454 -151 -805 -501 -955 -955
-37 -113 -67 -266 -65 -338 1 -45 2 -44 19 29 9 41 22 102 28 135 26 136 99
318 187 470 89 153 281 353 436 455 94 62 265 150 291 150 8 0 18 4 23 9 13
12 174 57 250 70 75 13 101 18 145 30 32 8 30 9 -25 9 -33 0 -98 -7 -145 -15z"/>
<path d="M1746 2950 c120 -25 217 -53 285 -80 114 -46 244 -114 294 -153 6 -4
35 -26 65 -48 70 -51 210 -188 265 -259 105 -136 194 -302 241 -450 13 -41 39
-145 57 -230 27 -129 33 -148 35 -110 5 68 -25 232 -64 349 -128 387 -402 701
-766 879 -168 82 -401 143 -537 141 -48 -1 -29 -6 125 -39z"/>
<path d="M878 2432 c-57 -7 -54 27 -54 -862 1 -801 1 -822 20 -836 16 -11 65
-14 236 -14 197 0 218 2 233 18 15 16 17 56 19 308 l3 289 47 3 c45 3 46 2 53
-30 43 -199 194 -476 309 -565 28 -23 34 -23 295 -23 146 0 272 4 279 9 25 15
-83 22 -321 20 l-232 -1 -42 46 c-120 133 -221 341 -267 549 -6 26 -8 27 -79
27 l-72 0 3 -312 3 -313 -231 0 -230 0 0 833 0 834 478 -4 c451 -4 481 -5 555
-26 251 -69 377 -223 377 -461 0 -239 -204 -465 -470 -522 l-50 -11 16 -28
c38 -63 145 -205 219 -291 113 -129 399 -373 366 -312 -10 20 -29 38 -127 118
-135 109 -355 359 -407 462 l-17 31 68 23 c155 51 303 171 370 301 34 66 36
75 53 172 11 66 0 173 -26 246 -37 107 -120 193 -240 250 -133 64 -189 70
-680 73 -237 1 -442 1 -457 -1z"/>
<path d="M1305 1885 l0 -365 106 0 c121 0 186 16 247 60 175 126 190 505 25
614 -58 38 -143 56 -268 56 l-110 0 0 -365z m338 302 c87 -51 127 -134 127
-265 0 -92 -26 -195 -64 -252 -58 -88 -147 -124 -291 -118 l-80 3 -3 320 c-1
176 0 326 3 334 4 11 31 13 133 9 117 -3 132 -6 175 -31z"/>
<path d="M11 1369 c-2 -132 63 -369 149 -540 69 -139 121 -213 260 -372 41
-47 181 -162 262 -214 202 -133 508 -235 687 -232 39 1 28 5 -64 25 -336 75
-524 156 -715 309 -267 214 -451 508 -525 840 -15 66 -33 145 -40 175 l-14 55
0 -46z"/>
<path d="M2981 1405 c-3 -12 -5 -23 -20 -100 -50 -260 -115 -431 -228 -605
-221 -340 -565 -568 -980 -651 -60 -11 -124 -25 -143 -29 -70 -16 61 -11 161
6 454 76 869 390 1077 816 82 167 150 429 139 533 -2 22 -5 36 -6 30z"/>
</g>
</svg>
